# xmcd
#
# Track frame offsets: 
#        150
#        16110
#        30754
#        46141
#        60272
#        75762
#        90175
#        108250
#        123998
#        138160
#        152875
#        166052
#        182638
#        197519
#        215945
#        229919
#        242156
#        258223
#        278355
#        294273
#        307568
#
# Disc length: 4334 seconds
#
# Revision: 0
# Processed by: cddbd v1.5.2PL0 Copyright (c) Steve Scherf et al.
# Submitted via: ExactAudioCopy v1.1
#
DISCID=ee10ec15
DTITLE=Nity Gritty Dirt Band - Let's Go and Acoustic
DYEAR=2015
DGENRE=Country
TTITLE0=Heartaches In Heartaches
TTITLE1=Special Look
TTITLE2=Shot Full Of Love
TTITLE3=Never Together (But Close Sometimes)
TTITLE4=Goodbye Eyes
TTITLE5=Maryann
TTITLE6=Too Many Heartaches In Paradise
TTITLE7=Don't Get Sand In It
TTITLE8=Let's Go
TTITLE9=Dance Little Jean
TTITLE10=How Long?
TTITLE11=Cupid's Got A Gun
TTITLE12=Sarah In The Summer
TTITLE13=Let It Roll
TTITLE14=Hello, I Am Your Heart
TTITLE15=Love Will Find A Way
TTITLE16=Tryin' Times
TTITLE17=This Train Keeps Rolling Along
TTITLE18=Badlands
TTITLE19=One Sure Honest Line
TTITLE20=The Broken Road
EXTD=
EXTT0=
EXTT1=
EXTT2=
EXTT3=
EXTT4=
EXTT5=
EXTT6=
EXTT7=
EXTT8=
EXTT9=
EXTT10=
EXTT11=
EXTT12=
EXTT13=
EXTT14=
EXTT15=
EXTT16=
EXTT17=
EXTT18=
EXTT19=
EXTT20=
PLAYORDER=
